<?xml version="1.0" encoding="UTF-8" standalone="no"?>
<!DOCTYPE svg PUBLIC "-//W3C//DTD SVG 1.1//EN" "http://www.w3.org/Graphics/SVG/1.1/DTD/svg11.dtd">
<svg width="100%" height="100%" viewBox="0 0 4673 4677" version="1.1" xmlns="http://www.w3.org/2000/svg" xmlns:xlink="http://www.w3.org/1999/xlink" xml:space="preserve" xmlns:serif="http://www.serif.com/" style="fill-rule:evenodd;clip-rule:evenodd;stroke-linejoin:round;stroke-miterlimit:2;">
    <g transform="matrix(1,0,0,1,-10861.9,-11415.8)">
        <g transform="matrix(4.16667,0,0,4.16667,0,0)">
            <g transform="matrix(1,0,0,1,3601.48,3654.35)">
                <path d="M0,-707.427L-39.224,-755.19C-257.876,-969.71 -611.18,-967.532 -829.387,-749.326C-1048.86,-529.858 -1049.83,-173.623 -831.498,44.714C-613.928,262.283 -259.396,262.04 -39.749,44.813L-31.977,36.851C166.864,-166.812 180.64,-487.46 0,-707.427" style="fill:white;fill-rule:nonzero;"/>
            </g>
        </g>
        <g transform="matrix(4.16667,0,0,4.16667,0,0)">
            <g transform="matrix(1,0,0,1,3166.66,3485.23)">
                <path d="M0,-179.107L-341.25,-520.357C-524.142,-333.943 -522.286,-32.729 -336.251,153.305C-149.14,340.416 154.572,341.25 340.717,155.105C526.208,-30.386 526.001,-332.647 340.802,-519.91L0,-179.107Z" style="fill-rule:nonzero;"/>
            </g>
        </g>
        <g transform="matrix(4.16667,0,0,4.16667,0,0)">
            <g transform="matrix(1,0,0,1,3289.66,3058.56)">
                <path d="M0,357.152L110.234,466.974C232.811,340.447 231.377,138.517 106.174,13.782C-20.12,-112.039 -224.499,-111.657 -350.319,14.636C-475.5,140.288 -475.738,343.218 -351.362,469.191L-240.905,358.319" style="fill-rule:nonzero;"/>
            </g>
        </g>
        <g transform="matrix(4.16667,0,0,4.16667,0,0)">
            <g transform="matrix(1,0,0,1,3287.47,3537.61)">
                <path d="M0,-352.296C31.676,-319.6 47.439,-277.242 47.264,-235.02L-118.457,-235.02L-118.457,-69.894C-161.325,-69.862 -204.283,-86.254 -237.082,-119.053C-301.29,-183.26 -302.63,-286.394 -240.907,-351.58L-350.936,-461.609C-473.749,-335.311 -472.693,-133.379 -347.724,-8.409C-251.326,87.988 -109.128,110.664 8.822,59.629L8.822,-107.74L176.54,-107.74C227.573,-225.025 205.611,-366.434 110.664,-462.96L0,-352.296Z" style="fill:white;fill-rule:nonzero;"/>
            </g>
        </g>
    </g>
</svg>
